<?xml version="1.0" encoding="UTF-8" standalone="no"?>
<!DOCTYPE svg PUBLIC "-//W3C//DTD SVG 1.1//EN"
 "http://www.w3.org/Graphics/SVG/1.1/DTD/svg11.dtd">
<!-- Generated by graphviz version 2.38.0 (20140413.2041)
 -->
<!-- Title: controllers_diagram Pages: 1 -->
<svg width="365pt" height="344pt"
 viewBox="0.00 0.00 365.50 343.50" xmlns="http://www.w3.org/2000/svg" xmlns:xlink="http://www.w3.org/1999/xlink">
<g id="graph0" class="graph" transform="scale(1 1) rotate(0) translate(116 213.5)">
<title>controllers_diagram</title>
<polygon fill="none" stroke="none" points="-116,130 -116,-213.5 249.5,-213.5 249.5,130 -116,130"/>
<!-- _diagram_info -->
<g id="node1" class="node"><title>_diagram_info</title>
<text text-anchor="start" x="-104" y="-21.6" font-family="Times,serif" font-size="13.00">Controllers diagram</text>
<text text-anchor="start" x="-104" y="-7.6" font-family="Times,serif" font-size="13.00">Date: Mar 06 2018 &#45; 12:20</text>
<text text-anchor="start" x="-104" y="6.4" font-family="Times,serif" font-size="13.00">Migration version: 20180306150954</text>
<text text-anchor="start" x="-104" y="20.4" font-family="Times,serif" font-size="13.00">Generated by RailRoady 1.5.3</text>
<text text-anchor="start" x="-104" y="34.4" font-family="Times,serif" font-size="13.00">http://railroady.prestonlee.com</text>
</g>
<!-- OrdersController -->
<g id="node2" class="node"><title>OrdersController</title>
<path fill="none" stroke="black" d="M82.5,-71C82.5,-71 167.5,-71 167.5,-71 173.5,-71 179.5,-77 179.5,-83 179.5,-83 179.5,-197 179.5,-197 179.5,-203 173.5,-209 167.5,-209 167.5,-209 82.5,-209 82.5,-209 76.5,-209 70.5,-203 70.5,-197 70.5,-197 70.5,-83 70.5,-83 70.5,-77 76.5,-71 82.5,-71"/>
<text text-anchor="middle" x="125" y="-193.8" font-family="Times,serif" font-size="14.00">OrdersController</text>
<polyline fill="none" stroke="black" points="70.5,-186 179.5,-186 "/>
<text text-anchor="start" x="78.5" y="-170.8" font-family="Times,serif" font-size="14.00">create</text>
<text text-anchor="start" x="78.5" y="-155.8" font-family="Times,serif" font-size="14.00">destroy</text>
<text text-anchor="start" x="78.5" y="-140.8" font-family="Times,serif" font-size="14.00">empty_cart</text>
<text text-anchor="start" x="78.5" y="-125.8" font-family="Times,serif" font-size="14.00">index</text>
<polyline fill="none" stroke="black" points="70.5,-118 179.5,-118 "/>
<polyline fill="none" stroke="black" points="70.5,-94 179.5,-94 "/>
<text text-anchor="start" x="78.5" y="-78.8" font-family="Times,serif" font-size="14.00">_layout</text>
</g>
<!-- ApplicationController -->
<g id="node3" class="node"><title>ApplicationController</title>
<path fill="none" stroke="black" d="M-86,-99C-86,-99 26,-99 26,-99 32,-99 38,-105 38,-111 38,-111 38,-181 38,-181 38,-187 32,-193 26,-193 26,-193 -86,-193 -86,-193 -92,-193 -98,-187 -98,-181 -98,-181 -98,-111 -98,-111 -98,-105 -92,-99 -86,-99"/>
<text text-anchor="middle" x="-30" y="-177.8" font-family="Times,serif" font-size="14.00">ApplicationController</text>
<polyline fill="none" stroke="black" points="-98,-170 38,-170 "/>
<polyline fill="none" stroke="black" points="-98,-146 38,-146 "/>
<polyline fill="none" stroke="black" points="-98,-122 38,-122 "/>
<text text-anchor="start" x="-90" y="-106.8" font-family="Times,serif" font-size="14.00">_layout</text>
</g>
<!-- ProductsController -->
<g id="node4" class="node"><title>ProductsController</title>
<path fill="none" stroke="black" d="M138.5,125.5C138.5,125.5 233.5,125.5 233.5,125.5 239.5,125.5 245.5,119.5 245.5,113.5 245.5,113.5 245.5,44.5 245.5,44.5 245.5,38.5 239.5,32.5 233.5,32.5 233.5,32.5 138.5,32.5 138.5,32.5 132.5,32.5 126.5,38.5 126.5,44.5 126.5,44.5 126.5,113.5 126.5,113.5 126.5,119.5 132.5,125.5 138.5,125.5"/>
<text text-anchor="middle" x="186" y="47.7" font-family="Times,serif" font-size="14.00">ProductsController</text>
<polyline fill="none" stroke="black" points="126.5,55.5 245.5,55.5 "/>
<text text-anchor="start" x="134.5" y="70.7" font-family="Times,serif" font-size="14.00">index</text>
<polyline fill="none" stroke="black" points="126.5,78.5 245.5,78.5 "/>
<polyline fill="none" stroke="black" points="126.5,102.5 245.5,102.5 "/>
<text text-anchor="start" x="134.5" y="117.7" font-family="Times,serif" font-size="14.00">_layout</text>
</g>
</g>
</svg>
