<?xml version="1.0" encoding="UTF-8" standalone="no"?>
<!DOCTYPE svg PUBLIC "-//W3C//DTD SVG 1.1//EN"
 "http://www.w3.org/Graphics/SVG/1.1/DTD/svg11.dtd">
<!-- Generated by graphviz version 2.38.0 (20140413.2041)
 -->
<!-- Title: models_diagram Pages: 1 -->
<svg width="656pt" height="784pt"
 viewBox="0.00 0.00 656.34 784.00" xmlns="http://www.w3.org/2000/svg" xmlns:xlink="http://www.w3.org/1999/xlink">
<g id="graph0" class="graph" transform="scale(1 1) rotate(0) translate(4 780)">
<title>models_diagram</title>
<polygon fill="none" stroke="none" points="-4,4 -4,-780 652.343,-780 652.343,4 -4,4"/>
<!-- _diagram_info -->
<g id="node1" class="node"><title>_diagram_info</title>
<text text-anchor="start" x="8" y="-739.6" font-family="Times,serif" font-size="13.00">Models diagram</text>
<text text-anchor="start" x="8" y="-725.6" font-family="Times,serif" font-size="13.00">Date: Mar 06 2018 &#45; 12:20</text>
<text text-anchor="start" x="8" y="-711.6" font-family="Times,serif" font-size="13.00">Migration version: 20180306150954</text>
<text text-anchor="start" x="8" y="-697.6" font-family="Times,serif" font-size="13.00">Generated by RailRoady 1.5.3</text>
<text text-anchor="start" x="8" y="-683.6" font-family="Times,serif" font-size="13.00">http://railroady.prestonlee.com</text>
</g>
<!-- Product -->
<g id="node2" class="node"><title>Product</title>
<path fill="none" stroke="black" d="M244,-654.5C244,-654.5 464,-654.5 464,-654.5 470,-654.5 476,-660.5 476,-666.5 476,-666.5 476,-763.5 476,-763.5 476,-769.5 470,-775.5 464,-775.5 464,-775.5 244,-775.5 244,-775.5 238,-775.5 232,-769.5 232,-763.5 232,-763.5 232,-666.5 232,-666.5 232,-660.5 238,-654.5 244,-654.5"/>
<text text-anchor="middle" x="354" y="-760.3" font-family="Times,serif" font-size="14.00">Product</text>
<polyline fill="none" stroke="black" points="232,-752.5 476,-752.5 "/>
<text text-anchor="start" x="240" y="-737.3" font-family="Times,serif" font-size="14.00">id :bigint</text>
<text text-anchor="start" x="240" y="-722.3" font-family="Times,serif" font-size="14.00">name :character varying</text>
<text text-anchor="start" x="240" y="-707.3" font-family="Times,serif" font-size="14.00">photo :character varying</text>
<text text-anchor="start" x="240" y="-692.3" font-family="Times,serif" font-size="14.00">price :integer</text>
<text text-anchor="start" x="240" y="-677.3" font-family="Times,serif" font-size="14.00">created_at :timestamp without time zone</text>
<text text-anchor="start" x="240" y="-662.3" font-family="Times,serif" font-size="14.00">updated_at :timestamp without time zone</text>
</g>
<!-- Order -->
<g id="node3" class="node"><title>Order</title>
<path fill="none" stroke="black" d="M189,-0.5C189,-0.5 409,-0.5 409,-0.5 415,-0.5 421,-6.5 421,-12.5 421,-12.5 421,-139.5 421,-139.5 421,-145.5 415,-151.5 409,-151.5 409,-151.5 189,-151.5 189,-151.5 183,-151.5 177,-145.5 177,-139.5 177,-139.5 177,-12.5 177,-12.5 177,-6.5 183,-0.5 189,-0.5"/>
<text text-anchor="middle" x="299" y="-136.3" font-family="Times,serif" font-size="14.00">Order</text>
<polyline fill="none" stroke="black" points="177,-128.5 421,-128.5 "/>
<text text-anchor="start" x="185" y="-113.3" font-family="Times,serif" font-size="14.00">id :bigint</text>
<text text-anchor="start" x="185" y="-98.3" font-family="Times,serif" font-size="14.00">payed :boolean</text>
<text text-anchor="start" x="185" y="-83.3" font-family="Times,serif" font-size="14.00">user_id :bigint</text>
<text text-anchor="start" x="185" y="-68.3" font-family="Times,serif" font-size="14.00">product_id :bigint</text>
<text text-anchor="start" x="185" y="-53.3" font-family="Times,serif" font-size="14.00">created_at :timestamp without time zone</text>
<text text-anchor="start" x="185" y="-38.3" font-family="Times,serif" font-size="14.00">updated_at :timestamp without time zone</text>
<text text-anchor="start" x="185" y="-23.3" font-family="Times,serif" font-size="14.00">quantity :integer</text>
<text text-anchor="start" x="185" y="-8.3" font-family="Times,serif" font-size="14.00">billing_id :bigint</text>
</g>
<!-- Product&#45;&gt;Order -->
<g id="edge1" class="edge"><title>Product&#45;&gt;Order</title>
<path fill="none" stroke="#866dca" d="M295.267,-647.654C289.456,-638.211 284.444,-628.218 281,-618 228.975,-463.635 255.655,-270.28 278.309,-161.507"/>
<ellipse fill="none" stroke="#866dca" cx="297.463" cy="-651.065" rx="4.00002" ry="4.00002"/>
<polygon fill="#866dca" stroke="#866dca" points="278.342,-161.354 284.819,-152.505 279.379,-156.463 280.417,-151.571 280.417,-151.571 280.417,-151.571 279.379,-156.463 276.015,-150.638 278.342,-161.354 278.342,-161.354"/>
</g>
<!-- User -->
<g id="node6" class="node"><title>User</title>
<path fill="none" stroke="black" d="M301.5,-376.5C301.5,-376.5 590.5,-376.5 590.5,-376.5 596.5,-376.5 602.5,-382.5 602.5,-388.5 602.5,-388.5 602.5,-605.5 602.5,-605.5 602.5,-611.5 596.5,-617.5 590.5,-617.5 590.5,-617.5 301.5,-617.5 301.5,-617.5 295.5,-617.5 289.5,-611.5 289.5,-605.5 289.5,-605.5 289.5,-388.5 289.5,-388.5 289.5,-382.5 295.5,-376.5 301.5,-376.5"/>
<text text-anchor="middle" x="446" y="-602.3" font-family="Times,serif" font-size="14.00">User</text>
<polyline fill="none" stroke="black" points="289.5,-594.5 602.5,-594.5 "/>
<text text-anchor="start" x="297.5" y="-579.3" font-family="Times,serif" font-size="14.00">id :bigint</text>
<text text-anchor="start" x="297.5" y="-564.3" font-family="Times,serif" font-size="14.00">email :character varying</text>
<text text-anchor="start" x="297.5" y="-549.3" font-family="Times,serif" font-size="14.00">encrypted_password :character varying</text>
<text text-anchor="start" x="297.5" y="-534.3" font-family="Times,serif" font-size="14.00">reset_password_token :character varying</text>
<text text-anchor="start" x="297.5" y="-519.3" font-family="Times,serif" font-size="14.00">reset_password_sent_at :timestamp without time zone</text>
<text text-anchor="start" x="297.5" y="-504.3" font-family="Times,serif" font-size="14.00">remember_created_at :timestamp without time zone</text>
<text text-anchor="start" x="297.5" y="-489.3" font-family="Times,serif" font-size="14.00">sign_in_count :integer</text>
<text text-anchor="start" x="297.5" y="-474.3" font-family="Times,serif" font-size="14.00">current_sign_in_at :timestamp without time zone</text>
<text text-anchor="start" x="297.5" y="-459.3" font-family="Times,serif" font-size="14.00">last_sign_in_at :timestamp without time zone</text>
<text text-anchor="start" x="297.5" y="-444.3" font-family="Times,serif" font-size="14.00">current_sign_in_ip :inet</text>
<text text-anchor="start" x="297.5" y="-429.3" font-family="Times,serif" font-size="14.00">last_sign_in_ip :inet</text>
<text text-anchor="start" x="297.5" y="-414.3" font-family="Times,serif" font-size="14.00">name :character varying</text>
<text text-anchor="start" x="297.5" y="-399.3" font-family="Times,serif" font-size="14.00">created_at :timestamp without time zone</text>
<text text-anchor="start" x="297.5" y="-384.3" font-family="Times,serif" font-size="14.00">updated_at :timestamp without time zone</text>
</g>
<!-- Product&#45;&gt;User -->
<g id="edge2" class="edge"><title>Product&#45;&gt;User</title>
<path fill="none" stroke="#eb39a8" d="M383.36,-645.069C385.808,-639.32 388.329,-633.401 390.89,-627.389"/>
<polygon fill="#eb39a8" stroke="#eb39a8" points="383.302,-645.205 375.243,-652.642 381.342,-649.805 379.383,-654.405 379.383,-654.405 379.383,-654.405 381.342,-649.805 383.523,-656.169 383.302,-645.205 383.302,-645.205"/>
<polygon fill="#eb39a8" stroke="#eb39a8" points="391.022,-627.079 399.081,-619.642 392.981,-622.479 394.941,-617.878 394.941,-617.878 394.941,-617.878 392.981,-622.479 390.801,-616.115 391.022,-627.079 391.022,-627.079"/>
</g>
<!-- Billing -->
<g id="node4" class="node"><title>Billing</title>
<path fill="none" stroke="black" d="M339,-188.5C339,-188.5 559,-188.5 559,-188.5 565,-188.5 571,-194.5 571,-200.5 571,-200.5 571,-327.5 571,-327.5 571,-333.5 565,-339.5 559,-339.5 559,-339.5 339,-339.5 339,-339.5 333,-339.5 327,-333.5 327,-327.5 327,-327.5 327,-200.5 327,-200.5 327,-194.5 333,-188.5 339,-188.5"/>
<text text-anchor="middle" x="449" y="-324.3" font-family="Times,serif" font-size="14.00">Billing</text>
<polyline fill="none" stroke="black" points="327,-316.5 571,-316.5 "/>
<text text-anchor="start" x="335" y="-301.3" font-family="Times,serif" font-size="14.00">id :bigint</text>
<text text-anchor="start" x="335" y="-286.3" font-family="Times,serif" font-size="14.00">code :character varying</text>
<text text-anchor="start" x="335" y="-271.3" font-family="Times,serif" font-size="14.00">payment_method :character varying</text>
<text text-anchor="start" x="335" y="-256.3" font-family="Times,serif" font-size="14.00">amount :numeric(5,2)</text>
<text text-anchor="start" x="335" y="-241.3" font-family="Times,serif" font-size="14.00">currency :character varying</text>
<text text-anchor="start" x="335" y="-226.3" font-family="Times,serif" font-size="14.00">user_id :bigint</text>
<text text-anchor="start" x="335" y="-211.3" font-family="Times,serif" font-size="14.00">created_at :timestamp without time zone</text>
<text text-anchor="start" x="335" y="-196.3" font-family="Times,serif" font-size="14.00">updated_at :timestamp without time zone</text>
</g>
<!-- Billing&#45;&gt;Order -->
<g id="edge3" class="edge"><title>Billing&#45;&gt;Order</title>
<path fill="none" stroke="#7715b1" d="M383.783,-182.131C377.774,-174.68 371.68,-167.123 365.658,-159.656"/>
<ellipse fill="none" stroke="#7715b1" cx="386.343" cy="-185.305" rx="4.00002" ry="4.00002"/>
<polygon fill="#7715b1" stroke="#7715b1" points="365.437,-159.382 362.663,-148.773 362.299,-155.49 359.16,-151.598 359.16,-151.598 359.16,-151.598 362.299,-155.49 355.657,-154.423 365.437,-159.382 365.437,-159.382"/>
</g>
<!-- ApplicationRecord -->
<g id="node5" class="node"><title>ApplicationRecord</title>
<ellipse fill="none" stroke="black" cx="571" cy="-715" rx="77.1866" ry="18"/>
<text text-anchor="middle" x="571" y="-711.3" font-family="Times,serif" font-size="14.00">ApplicationRecord</text>
</g>
<!-- User&#45;&gt;Order -->
<g id="edge4" class="edge"><title>User&#45;&gt;Order</title>
<path fill="none" stroke="#d4a059" d="M332.276,-369.29C326.817,-359.748 321.97,-349.95 318,-340 295.449,-283.478 291.195,-214.741 292.316,-161.715"/>
<ellipse fill="none" stroke="#d4a059" cx="334.32" cy="-372.747" rx="4.00002" ry="4.00002"/>
<polygon fill="#d4a059" stroke="#d4a059" points="292.318,-161.662 297.095,-151.791 292.457,-156.664 292.597,-151.666 292.597,-151.666 292.597,-151.666 292.457,-156.664 288.098,-151.54 292.318,-161.662 292.318,-161.662"/>
</g>
<!-- User&#45;&gt;Billing -->
<g id="edge5" class="edge"><title>User&#45;&gt;Billing</title>
<path fill="none" stroke="#5c2f39" d="M447.659,-368.22C447.741,-361.967 447.821,-355.762 447.9,-349.681"/>
<ellipse fill="none" stroke="#5c2f39" cx="447.605" cy="-372.441" rx="4" ry="4"/>
<polygon fill="#5c2f39" stroke="#5c2f39" points="447.902,-349.575 452.531,-339.634 447.967,-344.575 448.031,-339.575 448.031,-339.575 448.031,-339.575 447.967,-344.575 443.532,-339.517 447.902,-349.575 447.902,-349.575"/>
</g>
</g>
</svg>
