<?xml version="1.0" encoding="UTF-8" standalone="no"?>
<!DOCTYPE svg PUBLIC "-//W3C//DTD SVG 1.1//EN"
 "http://www.w3.org/Graphics/SVG/1.1/DTD/svg11.dtd">
<!-- Generated by graphviz version 2.38.0 (20140413.2041)
 -->
<!-- Title: models_diagram Pages: 1 -->
<svg width="489pt" height="302pt"
 viewBox="0.00 0.00 489.34 302.00" xmlns="http://www.w3.org/2000/svg" xmlns:xlink="http://www.w3.org/1999/xlink">
<g id="graph0" class="graph" transform="scale(1 1) rotate(0) translate(4 298)">
<title>models_diagram</title>
<polygon fill="none" stroke="none" points="-4,4 -4,-298 485.343,-298 485.343,4 -4,4"/>
<!-- _diagram_info -->
<g id="node1" class="node"><title>_diagram_info</title>
<text text-anchor="start" x="8" y="-279.6" font-family="Times,serif" font-size="13.00">Models diagram</text>
<text text-anchor="start" x="8" y="-265.6" font-family="Times,serif" font-size="13.00">Date: Mar 06 2018 &#45; 12:20</text>
<text text-anchor="start" x="8" y="-251.6" font-family="Times,serif" font-size="13.00">Migration version: 20180306150954</text>
<text text-anchor="start" x="8" y="-237.6" font-family="Times,serif" font-size="13.00">Generated by RailRoady 1.5.3</text>
<text text-anchor="start" x="8" y="-223.6" font-family="Times,serif" font-size="13.00">http://railroady.prestonlee.com</text>
</g>
<!-- Product -->
<g id="node2" class="node"><title>Product</title>
<ellipse fill="none" stroke="black" cx="270" cy="-255" rx="38.1938" ry="18"/>
<text text-anchor="middle" x="270" y="-251.3" font-family="Times,serif" font-size="14.00">Product</text>
</g>
<!-- Order -->
<g id="node3" class="node"><title>Order</title>
<ellipse fill="none" stroke="black" cx="280" cy="-18" rx="31.3957" ry="18"/>
<text text-anchor="middle" x="280" y="-14.3" font-family="Times,serif" font-size="14.00">Order</text>
</g>
<!-- Product&#45;&gt;Order -->
<g id="edge1" class="edge"><title>Product&#45;&gt;Order</title>
<path fill="none" stroke="#6d7048" d="M266.207,-229.085C264.219,-214.764 261.994,-196.414 261,-180 258.125,-132.548 267.315,-77.6256 273.901,-45.7477"/>
<ellipse fill="none" stroke="#6d7048" cx="266.774" cy="-233.047" rx="4.00001" ry="4.00001"/>
<polygon fill="#6d7048" stroke="#6d7048" points="273.923,-45.6435 280.414,-36.805 274.968,-40.754 276.013,-35.8644 276.013,-35.8644 276.013,-35.8644 274.968,-40.754 271.612,-34.9238 273.923,-45.6435 273.923,-45.6435"/>
</g>
<!-- User -->
<g id="node6" class="node"><title>User</title>
<ellipse fill="none" stroke="black" cx="297" cy="-162" rx="27.0966" ry="18"/>
<text text-anchor="middle" x="297" y="-158.3" font-family="Times,serif" font-size="14.00">User</text>
</g>
<!-- Product&#45;&gt;User -->
<g id="edge2" class="edge"><title>Product&#45;&gt;User</title>
<path fill="none" stroke="#6027fc" d="M278.034,-226.922C281.55,-215.073 285.66,-201.218 289.154,-189.443"/>
<polygon fill="#6027fc" stroke="#6027fc" points="277.923,-227.297 270.764,-235.604 276.501,-232.09 275.078,-236.884 275.078,-236.884 275.078,-236.884 276.501,-232.09 279.393,-238.164 277.923,-227.297 277.923,-227.297"/>
<polygon fill="#6027fc" stroke="#6027fc" points="289.191,-189.319 296.35,-181.012 290.613,-184.526 292.036,-179.732 292.036,-179.732 292.036,-179.732 290.613,-184.526 287.721,-178.452 289.191,-189.319 289.191,-189.319"/>
</g>
<!-- Billing -->
<g id="node4" class="node"><title>Billing</title>
<ellipse fill="none" stroke="black" cx="343" cy="-90" rx="35.194" ry="18"/>
<text text-anchor="middle" x="343" y="-86.3" font-family="Times,serif" font-size="14.00">Billing</text>
</g>
<!-- Billing&#45;&gt;Order -->
<g id="edge3" class="edge"><title>Billing&#45;&gt;Order</title>
<path fill="none" stroke="#1c1bde" d="M323.609,-67.4545C316.341,-59.3793 308.059,-50.1771 300.679,-41.9771"/>
<ellipse fill="none" stroke="#1c1bde" cx="326.342" cy="-70.4915" rx="4.00002" ry="4.00002"/>
<polygon fill="#1c1bde" stroke="#1c1bde" points="300.632,-41.9248 297.287,-31.4815 297.287,-38.2083 293.943,-34.4918 293.943,-34.4918 293.943,-34.4918 297.287,-38.2083 290.598,-37.5022 300.632,-41.9248 300.632,-41.9248"/>
</g>
<!-- ApplicationRecord -->
<g id="node5" class="node"><title>ApplicationRecord</title>
<ellipse fill="none" stroke="black" cx="404" cy="-255" rx="77.1866" ry="18"/>
<text text-anchor="middle" x="404" y="-251.3" font-family="Times,serif" font-size="14.00">ApplicationRecord</text>
</g>
<!-- User&#45;&gt;Order -->
<g id="edge4" class="edge"><title>User&#45;&gt;Order</title>
<path fill="none" stroke="#22ed19" d="M293.954,-135.558C290.948,-110.444 286.365,-72.164 283.279,-46.3932"/>
<ellipse fill="none" stroke="#22ed19" cx="294.474" cy="-139.9" rx="4.00001" ry="4.00001"/>
<polygon fill="#22ed19" stroke="#22ed19" points="283.247,-46.1184 286.526,-35.6543 282.652,-41.1538 282.058,-36.1893 282.058,-36.1893 282.058,-36.1893 282.652,-41.1538 277.59,-36.7242 283.247,-46.1184 283.247,-46.1184"/>
</g>
<!-- User&#45;&gt;Billing -->
<g id="edge5" class="edge"><title>User&#45;&gt;Billing</title>
<path fill="none" stroke="#f672ca" d="M311.846,-138.409C316.525,-131.287 321.722,-123.379 326.509,-116.094"/>
<ellipse fill="none" stroke="#f672ca" cx="309.635" cy="-141.773" rx="4.00002" ry="4.00002"/>
<polygon fill="#f672ca" stroke="#f672ca" points="326.792,-115.664 336.045,-109.778 329.538,-111.486 332.284,-107.307 332.284,-107.307 332.284,-107.307 329.538,-111.486 328.523,-104.836 326.792,-115.664 326.792,-115.664"/>
</g>
</g>
</svg>
